<svg width="47" height="46" viewBox="0 0 47 46" fill="none" xmlns="http://www.w3.org/2000/svg">
<path d="M20.462 9.76948H8.61948C7.79768 9.76948 7.13198 9.10378 7.13198 8.28198C7.13198 7.46019 7.79768 6.79448 8.61948 6.79448H20.462C21.2838 6.79448 21.9495 7.46019 21.9495 8.28198C21.9495 9.10372 21.2831 9.76948 20.462 9.76948Z" fill="url(#paint0_linear_768_155)" stroke="white" stroke-width="0.4"/>
<path d="M29.5087 8.28117V8.28132C29.5087 9.15636 28.7995 9.86557 27.9245 9.86557C27.0494 9.86557 26.3402 9.15636 26.3402 8.28132C26.3402 7.40628 27.0494 6.69707 27.9245 6.69707C28.7996 6.69707 29.5094 7.40708 29.5087 8.28117Z" fill="url(#paint1_linear_768_155)" stroke="white" stroke-width="0.4"/>
<path d="M31.5205 8.28132C31.5205 7.40628 32.2297 6.69707 33.1047 6.69707C33.9797 6.69707 34.689 7.40697 34.689 8.28132C34.689 9.15636 33.9798 9.86557 33.1047 9.86557C32.2297 9.86557 31.5205 9.15636 31.5205 8.28132Z" fill="url(#paint2_linear_768_155)" stroke="white" stroke-width="0.4"/>
<path d="M36.7 8.28132C36.7 7.40628 37.4092 6.69707 38.2842 6.69707C39.1592 6.69707 39.8685 7.40697 39.8685 8.28132C39.8685 9.15636 39.1593 9.86557 38.2842 9.86557C37.4092 9.86557 36.7 9.15636 36.7 8.28132Z" fill="url(#paint3_linear_768_155)" stroke="white" stroke-width="0.4"/>
<path d="M3.78271 15.9076H3.58271V16.1076V38.8401C3.58271 39.4785 4.10426 40.0001 4.74271 40.0001H10.6977C11.623 40.0001 12.3727 40.7498 12.3727 41.6751C12.3727 42.6004 11.623 43.3501 10.6977 43.3501H4.74271C2.25796 43.3501 0.232715 41.3319 0.232715 38.8401V5.16508C0.232715 2.67324 2.25796 0.655078 4.74271 0.655078H42.2577C44.7425 0.655078 46.7677 2.67324 46.7677 5.16508V38.8401C46.7677 41.3319 44.7425 43.3501 42.2577 43.3501H40.7277C39.8024 43.3501 39.0527 42.6004 39.0527 41.6751C39.0527 40.7498 39.8024 40.0001 40.7277 40.0001H42.2577C42.8962 40.0001 43.4177 39.4785 43.4177 38.8401V16.1076V15.9076H43.2177H3.78271ZM43.2177 12.5576H43.4177V12.3576V5.16508C43.4177 4.52111 42.8922 4.00508 42.2577 4.00508H4.74271C4.10828 4.00508 3.58271 4.52111 3.58271 5.16508V12.3576V12.5576H3.78271H43.2177Z" fill="url(#paint4_linear_768_155)" stroke="white" stroke-width="0.4"/>
<path d="M27.6733 36.9637L27.8413 36.8656C28.9324 36.2287 30.2178 35.8253 31.6709 35.696C32.0746 35.6594 32.4534 35.482 32.7389 35.1951L32.7389 35.1951L32.9467 34.9866L32.9467 34.9865C33.3525 34.5794 33.5291 33.997 33.4173 33.4341L33.4173 33.434C33.3062 32.871 32.9212 32.3998 32.392 32.1783L32.392 32.1783L15.727 25.1995L15.7268 25.1994C15.0811 24.9277 14.3354 25.0753 13.8414 25.5706L13.8412 25.5708C13.3459 26.0654 13.1995 26.8105 13.4693 27.4565L27.6733 36.9637ZM27.6733 36.9637L27.8109 37.1012M27.6733 36.9637L27.8109 37.1012M27.8109 37.1012L33.1606 42.451C33.834 43.1243 33.8341 44.2158 33.1622 44.89M27.8109 37.1012L33.1622 44.89M25.235 39.4028L25.3725 39.5404L30.7223 44.8901C31.059 45.2268 31.5003 45.3952 31.9422 45.3952C32.3839 45.3952 32.8244 45.227 33.162 44.8903C33.1621 44.8902 33.1622 44.8901 33.1622 44.89M25.235 39.4028L33.2682 44.9962L33.1622 44.89M25.235 39.4028L25.1369 39.5708M25.235 39.4028L25.1369 39.5708M25.1369 39.5708C24.5 40.6619 24.0966 41.948 23.9666 43.401M25.1369 39.5708L23.9666 43.401M23.9666 43.401C23.9299 43.8034 23.7547 44.1801 23.4691 44.4664L23.9666 43.401ZM20.4481 44.1222L13.4694 27.4566L23.469 44.4665L23.2608 44.6748C22.9336 45.0013 22.4925 45.1807 22.0392 45.1807C21.9293 45.1807 21.8175 45.1697 21.7067 45.1483C21.1421 45.0371 20.6702 44.6528 20.4481 44.1222ZM21.6961 38.1721L21.8172 38.4614L21.9664 38.1855C22.4622 37.2687 23.0756 36.4422 23.7884 35.7109L23.7885 35.711L23.794 35.7048C23.8103 35.6861 23.8255 35.666 23.837 35.6509C23.8392 35.648 23.8413 35.6453 23.8432 35.6428C23.8566 35.6252 23.8661 35.6137 23.8755 35.6043C23.885 35.5948 23.8968 35.5851 23.9144 35.5716C23.9173 35.5694 23.9205 35.567 23.924 35.5644C23.939 35.5531 23.9584 35.5383 23.9764 35.523L23.9766 35.5232L23.9837 35.5164C24.7134 34.8051 25.5392 34.1924 26.4553 33.6966L26.731 33.5474L26.4419 33.4263L18.6149 30.1488L18.2772 30.0074L18.4186 30.3451L21.6961 38.1721Z" fill="url(#paint5_linear_768_155)" stroke="white" stroke-width="0.3"/>
<defs>
<linearGradient id="paint0_linear_768_155" x1="6.93198" y1="8.28198" x2="22.1495" y2="8.28198" gradientUnits="userSpaceOnUse">
<stop stop-color="#3F6FEA"/>
<stop offset="0.0666667" stop-color="#3F70EA"/>
<stop offset="0.133333" stop-color="#3E72E9"/>
<stop offset="0.2" stop-color="#3D77E9"/>
<stop offset="0.266667" stop-color="#3C7DE7"/>
<stop offset="0.333333" stop-color="#3B85E6"/>
<stop offset="0.4" stop-color="#398FE4"/>
<stop offset="0.466667" stop-color="#3799E2"/>
<stop offset="0.533333" stop-color="#34A4E1"/>
<stop offset="0.6" stop-color="#32AFDF"/>
<stop offset="0.666667" stop-color="#30B8DD"/>
<stop offset="0.733333" stop-color="#2FC1DC"/>
<stop offset="0.8" stop-color="#2EC7DA"/>
<stop offset="0.866667" stop-color="#2DCBDA"/>
<stop offset="0.933333" stop-color="#2CCED9"/>
<stop offset="1" stop-color="#2CCFD9"/>
</linearGradient>
<linearGradient id="paint1_linear_768_155" x1="26.1402" y1="8.28132" x2="29.7087" y2="8.28132" gradientUnits="userSpaceOnUse">
<stop stop-color="#3F6FEA"/>
<stop offset="0.0666667" stop-color="#3F70EA"/>
<stop offset="0.133333" stop-color="#3E72E9"/>
<stop offset="0.2" stop-color="#3D77E9"/>
<stop offset="0.266667" stop-color="#3C7DE7"/>
<stop offset="0.333333" stop-color="#3B85E6"/>
<stop offset="0.4" stop-color="#398FE4"/>
<stop offset="0.466667" stop-color="#3799E2"/>
<stop offset="0.533333" stop-color="#34A4E1"/>
<stop offset="0.6" stop-color="#32AFDF"/>
<stop offset="0.666667" stop-color="#30B8DD"/>
<stop offset="0.733333" stop-color="#2FC1DC"/>
<stop offset="0.8" stop-color="#2EC7DA"/>
<stop offset="0.866667" stop-color="#2DCBDA"/>
<stop offset="0.933333" stop-color="#2CCED9"/>
<stop offset="1" stop-color="#2CCFD9"/>
</linearGradient>
<linearGradient id="paint2_linear_768_155" x1="31.3205" y1="8.28132" x2="34.889" y2="8.28132" gradientUnits="userSpaceOnUse">
<stop stop-color="#3F6FEA"/>
<stop offset="0.0666667" stop-color="#3F70EA"/>
<stop offset="0.133333" stop-color="#3E72E9"/>
<stop offset="0.2" stop-color="#3D77E9"/>
<stop offset="0.266667" stop-color="#3C7DE7"/>
<stop offset="0.333333" stop-color="#3B85E6"/>
<stop offset="0.4" stop-color="#398FE4"/>
<stop offset="0.466667" stop-color="#3799E2"/>
<stop offset="0.533333" stop-color="#34A4E1"/>
<stop offset="0.6" stop-color="#32AFDF"/>
<stop offset="0.666667" stop-color="#30B8DD"/>
<stop offset="0.733333" stop-color="#2FC1DC"/>
<stop offset="0.8" stop-color="#2EC7DA"/>
<stop offset="0.866667" stop-color="#2DCBDA"/>
<stop offset="0.933333" stop-color="#2CCED9"/>
<stop offset="1" stop-color="#2CCFD9"/>
</linearGradient>
<linearGradient id="paint3_linear_768_155" x1="36.5" y1="8.28132" x2="40.0685" y2="8.28132" gradientUnits="userSpaceOnUse">
<stop stop-color="#3F6FEA"/>
<stop offset="0.0666667" stop-color="#3F70EA"/>
<stop offset="0.133333" stop-color="#3E72E9"/>
<stop offset="0.2" stop-color="#3D77E9"/>
<stop offset="0.266667" stop-color="#3C7DE7"/>
<stop offset="0.333333" stop-color="#3B85E6"/>
<stop offset="0.4" stop-color="#398FE4"/>
<stop offset="0.466667" stop-color="#3799E2"/>
<stop offset="0.533333" stop-color="#34A4E1"/>
<stop offset="0.6" stop-color="#32AFDF"/>
<stop offset="0.666667" stop-color="#30B8DD"/>
<stop offset="0.733333" stop-color="#2FC1DC"/>
<stop offset="0.8" stop-color="#2EC7DA"/>
<stop offset="0.866667" stop-color="#2DCBDA"/>
<stop offset="0.933333" stop-color="#2CCED9"/>
<stop offset="1" stop-color="#2CCFD9"/>
</linearGradient>
<linearGradient id="paint4_linear_768_155" x1="0.0327152" y1="22.0026" x2="46.9677" y2="22.0026" gradientUnits="userSpaceOnUse">
<stop stop-color="#3F6FEA"/>
<stop offset="0.0666667" stop-color="#3F70EA"/>
<stop offset="0.133333" stop-color="#3E72E9"/>
<stop offset="0.2" stop-color="#3D77E9"/>
<stop offset="0.266667" stop-color="#3C7DE7"/>
<stop offset="0.333333" stop-color="#3B85E6"/>
<stop offset="0.4" stop-color="#398FE4"/>
<stop offset="0.466667" stop-color="#3799E2"/>
<stop offset="0.533333" stop-color="#34A4E1"/>
<stop offset="0.6" stop-color="#32AFDF"/>
<stop offset="0.666667" stop-color="#30B8DD"/>
<stop offset="0.733333" stop-color="#2FC1DC"/>
<stop offset="0.8" stop-color="#2EC7DA"/>
<stop offset="0.866667" stop-color="#2DCBDA"/>
<stop offset="0.933333" stop-color="#2CCED9"/>
<stop offset="1" stop-color="#2CCFD9"/>
</linearGradient>
<linearGradient id="paint5_linear_768_155" x1="13.1858" y1="35.23" x2="33.8159" y2="35.23" gradientUnits="userSpaceOnUse">
<stop stop-color="#3F6FEA"/>
<stop offset="0.0666667" stop-color="#3F70EA"/>
<stop offset="0.133333" stop-color="#3E72E9"/>
<stop offset="0.2" stop-color="#3D77E9"/>
<stop offset="0.266667" stop-color="#3C7DE7"/>
<stop offset="0.333333" stop-color="#3B85E6"/>
<stop offset="0.4" stop-color="#398FE4"/>
<stop offset="0.466667" stop-color="#3799E2"/>
<stop offset="0.533333" stop-color="#34A4E1"/>
<stop offset="0.6" stop-color="#32AFDF"/>
<stop offset="0.666667" stop-color="#30B8DD"/>
<stop offset="0.733333" stop-color="#2FC1DC"/>
<stop offset="0.8" stop-color="#2EC7DA"/>
<stop offset="0.866667" stop-color="#2DCBDA"/>
<stop offset="0.933333" stop-color="#2CCED9"/>
<stop offset="1" stop-color="#2CCFD9"/>
</linearGradient>
</defs>
</svg>
